<?xml version="1.0" standalone="no"?>
<!DOCTYPE svg PUBLIC "-//W3C//DTD SVG 20010904//EN"
 "http://www.w3.org/TR/2001/REC-SVG-20010904/DTD/svg10.dtd">
<svg version="1.0" xmlns="http://www.w3.org/2000/svg"
 width="1280.000000pt" height="1280.000000pt" viewBox="0 0 1280.000000 1280.000000"
 preserveAspectRatio="xMidYMid meet">
<metadata>
Created by potrace 1.14, written by Peter Selinger 2001-2017
</metadata>
<g transform="translate(0.000000,1280.000000) scale(0.100000,-0.100000)"
fill="#000000" stroke="none">
<path d="M6373 12780 c-4 -4 -35 -15 -68 -25 -33 -11 -64 -22 -70 -26 -5 -4
-25 -10 -43 -14 -18 -4 -45 -13 -60 -21 -15 -8 -34 -14 -43 -14 -9 0 -19 -3
-23 -7 -4 -4 -30 -15 -59 -24 -29 -9 -124 -42 -212 -73 -88 -31 -187 -66 -220
-77 -33 -11 -69 -24 -80 -29 -21 -9 -54 -20 -58 -19 -1 0 -33 -12 -72 -26 -38
-15 -104 -38 -145 -52 -41 -13 -84 -28 -95 -33 -11 -5 -33 -13 -50 -18 -16 -6
-95 -33 -175 -62 -80 -28 -149 -52 -155 -53 -10 -3 -65 -23 -100 -37 -20 -9
-61 -22 -80 -26 -5 -1 -23 -8 -40 -15 -16 -7 -32 -13 -35 -14 -3 0 -36 -12
-75 -25 -38 -13 -74 -25 -80 -26 -5 -2 -46 -16 -90 -33 -44 -16 -127 -46 -185
-66 -58 -20 -114 -40 -125 -45 -27 -11 -163 -59 -173 -61 -4 -1 -11 -3 -17 -5
-5 -2 -80 -29 -165 -59 -85 -31 -162 -57 -170 -59 -8 -2 -60 -20 -115 -40 -55
-20 -140 -50 -190 -67 -49 -17 -97 -33 -105 -36 -8 -4 -17 -7 -20 -8 -3 -1
-12 -4 -20 -8 -8 -3 -62 -22 -120 -42 -58 -20 -136 -48 -175 -62 -38 -14 -74
-26 -80 -27 -16 -4 -47 -16 -83 -32 -18 -8 -41 -14 -51 -14 -10 0 -21 -3 -25
-7 -4 -5 -11 -8 -14 -9 -4 0 -15 -4 -24 -7 -10 -4 -26 -10 -35 -14 -10 -3 -20
-7 -23 -7 -8 -2 -162 -57 -185 -66 -11 -4 -63 -23 -115 -41 -52 -18 -101 -37
-108 -42 -6 -5 -12 -7 -12 -3 0 3 -24 -3 -52 -15 -29 -11 -60 -22 -68 -24 -15
-3 -233 -80 -260 -92 -8 -3 -19 -7 -25 -9 -5 -1 -93 -32 -195 -67 -198 -70
-199 -71 -335 -118 -49 -17 -112 -40 -140 -50 -27 -10 -97 -35 -155 -55 -58
-19 -143 -49 -190 -66 -47 -16 -91 -31 -97 -33 -8 -3 -11 -16 -8 -37 4 -31 12
-104 20 -173 2 -16 6 -52 9 -80 4 -27 9 -70 12 -95 11 -101 14 -126 19 -150 3
-14 7 -52 10 -85 2 -33 6 -69 9 -80 2 -11 7 -49 10 -85 4 -36 8 -75 10 -87 3
-12 7 -48 11 -80 3 -32 8 -70 11 -86 4 -25 10 -86 19 -178 1 -20 5 -49 9 -65
3 -16 8 -57 11 -92 4 -35 8 -73 10 -84 3 -11 7 -46 10 -77 4 -31 8 -72 11 -91
2 -19 7 -55 9 -80 6 -55 14 -117 19 -150 3 -14 7 -56 11 -95 4 -38 8 -72 10
-75 2 -4 6 -43 9 -89 3 -45 7 -85 10 -89 2 -4 7 -37 10 -74 4 -37 8 -75 10
-85 2 -10 7 -47 10 -83 4 -36 8 -76 11 -89 2 -12 7 -49 10 -82 4 -33 8 -68 10
-78 2 -9 6 -48 9 -86 4 -39 9 -77 11 -85 2 -8 7 -46 10 -84 3 -38 7 -71 9 -75
2 -3 7 -37 11 -76 3 -38 8 -83 10 -100 3 -16 7 -50 9 -75 3 -25 8 -67 12 -95
11 -79 14 -107 18 -152 3 -23 8 -65 11 -95 14 -104 26 -207 30 -248 1 -14 5
-43 9 -65 3 -22 9 -65 12 -95 5 -54 7 -69 18 -160 3 -25 8 -72 12 -105 3 -33
8 -69 10 -79 2 -11 6 -42 9 -70 2 -28 7 -60 9 -71 2 -11 7 -51 11 -90 4 -38 9
-86 12 -105 2 -19 6 -51 8 -70 2 -19 6 -48 9 -65 2 -16 8 -59 11 -95 3 -36 8
-72 10 -80 3 -8 7 -44 10 -80 2 -36 7 -76 9 -90 3 -14 7 -52 11 -85 6 -57 9
-80 19 -157 5 -34 13 -102 20 -173 5 -43 34 -278 41 -335 13 -93 17 -129 20
-175 2 -27 5 -50 5 -50 2 0 8 -39 19 -135 17 -150 31 -261 37 -305 2 -16 6
-55 9 -85 3 -30 8 -71 11 -90 6 -44 11 -78 19 -155 3 -33 10 -89 15 -125 5
-36 12 -92 15 -125 3 -33 8 -71 10 -85 5 -29 11 -81 20 -161 3 -31 8 -67 10
-79 2 -12 7 -50 10 -84 2 -33 7 -70 9 -82 2 -11 7 -47 10 -79 7 -61 17 -129
19 -131 1 0 36 -19 77 -41 41 -22 96 -52 122 -67 26 -14 71 -39 100 -54 29
-15 72 -40 95 -55 24 -15 45 -27 49 -27 5 0 50 -25 269 -145 184 -102 237
-131 285 -157 30 -17 69 -38 85 -48 17 -9 62 -34 100 -55 66 -35 194 -106 345
-190 36 -20 81 -43 100 -53 19 -9 37 -19 40 -22 3 -3 16 -11 30 -17 14 -7 50
-26 80 -44 30 -17 73 -40 95 -52 22 -12 48 -28 58 -36 9 -8 17 -11 17 -7 0 4
12 -1 28 -12 15 -10 68 -40 117 -67 50 -26 95 -51 100 -55 6 -4 51 -29 100
-56 50 -26 113 -61 140 -76 28 -15 64 -35 80 -43 17 -8 37 -20 45 -25 17 -10
142 -80 235 -130 33 -18 89 -48 125 -68 36 -19 79 -43 95 -52 17 -10 55 -31
85 -47 30 -17 82 -45 115 -63 33 -18 80 -44 105 -58 117 -64 226 -124 240
-133 8 -5 24 -14 35 -19 11 -5 56 -30 100 -54 44 -25 105 -58 135 -74 63 -33
218 -118 240 -132 8 -5 31 -18 50 -28 19 -11 55 -30 80 -43 25 -13 47 -26 50
-29 5 -5 20 -13 155 -84 33 -17 62 -33 65 -36 5 -6 64 -38 160 -87 30 -15 57
-30 60 -33 7 -7 97 -57 140 -78 19 -9 37 -20 38 -25 2 -4 8 -7 13 -7 5 0 48
-22 96 -49 l86 -49 49 29 c27 16 50 29 52 29 2 0 48 25 102 56 55 31 137 76
184 102 47 25 96 52 110 61 14 9 43 26 65 36 22 11 42 22 45 25 3 3 27 17 55
30 27 14 55 30 61 36 7 6 27 17 46 24 18 8 44 21 58 30 26 18 112 66 195 110
28 14 61 33 75 42 25 15 108 61 185 102 22 12 42 24 43 29 2 4 12 7 23 7 10 0
19 5 19 10 0 6 4 10 9 10 5 0 48 22 96 50 48 27 90 50 95 50 5 0 15 6 22 12 7
7 31 22 53 34 22 11 67 36 100 54 108 61 160 89 195 106 19 10 37 21 40 25 3
3 30 19 60 34 30 14 64 32 75 38 18 11 57 33 200 112 28 16 79 44 115 63 36
19 77 43 92 54 14 10 29 18 32 18 4 0 39 19 79 42 73 42 102 57 237 130 41 23
80 44 85 48 6 4 39 23 75 43 149 81 216 117 230 127 8 5 32 18 53 27 20 10 37
21 37 25 0 5 5 8 11 8 7 0 50 22 98 49 47 27 106 60 131 73 25 14 61 34 80 45
19 11 71 39 115 63 44 23 85 46 90 50 6 4 41 24 78 44 37 20 84 46 105 58 20
12 57 32 82 46 25 13 54 29 65 35 11 7 81 46 155 87 74 41 149 82 165 91 17 9
51 28 78 40 26 13 47 27 47 31 0 5 6 8 13 8 7 0 29 11 50 25 20 14 37 23 37
19 0 -4 8 0 18 8 9 9 40 28 67 42 51 27 207 113 238 132 12 7 21 31 27 75 11
78 23 188 24 212 0 9 3 17 6 17 3 0 5 13 4 30 0 16 3 55 7 87 9 65 22 181 22
201 0 6 3 12 6 12 3 0 6 15 7 33 0 40 12 164 19 197 3 13 7 54 10 90 3 36 8
72 10 80 4 16 13 90 20 160 2 25 6 65 10 90 4 25 8 62 10 82 2 21 6 50 9 65 3
15 8 57 12 93 10 96 11 111 18 160 3 25 8 65 11 90 9 76 16 134 20 167 3 17
11 91 20 165 8 73 17 149 20 168 7 54 14 111 19 155 3 22 8 63 11 91 4 28 8
68 10 90 2 21 6 50 9 64 2 14 7 56 11 94 4 38 9 79 10 90 2 12 7 46 10 76 4
30 8 66 10 80 1 14 6 54 9 90 4 36 9 76 11 90 2 14 6 50 10 80 3 30 8 66 10
80 4 25 15 111 20 160 6 62 15 137 19 160 3 14 7 55 11 92 3 37 8 79 11 94 5
26 9 62 19 159 2 28 7 66 10 85 12 80 16 107 19 150 2 25 13 119 25 210 11 91
23 190 26 220 8 69 12 104 19 155 6 41 13 99 21 169 12 103 16 133 20 161 3
17 7 55 10 85 2 30 9 87 14 125 5 39 12 93 15 120 3 28 8 70 11 95 4 39 10 86
30 240 3 19 7 56 10 83 9 80 15 138 20 176 3 20 8 61 11 91 3 30 8 69 10 85 3
17 7 50 10 75 3 25 6 56 9 70 2 14 7 57 11 95 3 39 8 78 10 89 2 10 6 44 9 75
4 31 8 67 10 81 9 61 19 148 19 177 1 18 3 33 6 33 3 0 5 12 6 28 1 36 14 153
19 172 2 8 6 42 10 75 5 59 10 96 20 173 3 20 8 66 11 102 3 36 10 72 14 81 5
8 5 21 0 29 -5 8 -5 21 -1 29 5 9 12 45 15 81 18 168 21 148 -26 161 -24 7
-47 15 -53 19 -5 3 -30 12 -55 19 -25 7 -54 17 -65 21 -11 4 -36 13 -55 20
-19 7 -44 16 -55 20 -11 5 -29 11 -40 13 -11 3 -126 42 -255 87 -129 44 -282
97 -340 116 -58 20 -114 39 -125 44 -11 5 -56 21 -100 36 -171 57 -401 135
-415 141 -8 4 -18 7 -22 8 -5 2 -10 4 -13 5 -3 1 -9 3 -14 4 -5 0 -13 4 -17 9
-4 4 -18 7 -30 7 -13 0 -25 4 -28 9 -3 5 -18 11 -33 14 -16 3 -65 19 -110 36
-46 16 -83 28 -83 24 0 -3 -6 -1 -12 5 -7 5 -29 15 -48 20 -19 6 -114 38 -210
72 -96 34 -182 63 -190 65 -8 2 -16 4 -17 5 -2 2 -6 3 -10 5 -5 1 -15 4 -23 8
-8 3 -44 15 -80 27 -90 31 -620 213 -760 261 -63 22 -119 42 -125 43 -5 2 -17
6 -25 9 -8 4 -42 16 -75 26 -33 11 -80 27 -105 36 -25 9 -52 19 -60 21 -13 3
-204 69 -250 87 -8 3 -76 26 -150 51 -74 24 -196 66 -270 91 -74 26 -139 48
-145 49 -12 4 -43 15 -70 26 -11 5 -38 14 -60 20 -22 6 -47 14 -55 17 -8 4
-18 7 -22 7 -3 1 -10 4 -14 9 -4 4 -13 7 -20 7 -7 0 -25 5 -41 12 -15 6 -32
12 -38 14 -5 1 -50 16 -100 34 -49 17 -94 33 -100 34 -5 2 -17 6 -25 9 -8 3
-55 20 -105 36 -141 47 -328 112 -345 118 -8 4 -18 7 -22 8 -5 2 -9 3 -10 5
-2 1 -10 3 -18 5 -17 4 -248 83 -270 92 -8 3 -19 7 -25 9 -5 1 -54 18 -107 36
-54 19 -101 32 -105 28z"/>
</g>
</svg>
